<svg width="24" height="18" viewBox="0 0 24 18" fill="none" xmlns="http://www.w3.org/2000/svg">
<path d="M22 14V2.00002C22 0.897 21.1025 0 20 0H1.99997C0.897469 0 0 0.896953 0 2.00002V14C0 15.103 0.897469 16 2.00002 16H20C21.1026 16 22 15.103 22 14ZM0.999984 14V2.00002C0.999984 1.44877 1.44825 1.00003 1.99997 1.00003H20C20.5517 1.00003 21 1.44877 21 2.00002V14C21 14.5513 20.5517 15 20 15H1.99997C1.44825 15 0.999984 14.5513 0.999984 14Z" fill="#646C7B"/>
<path d="M23.5 3.50003C23.2236 3.50003 23 3.72367 23 4.00005V16C23 16.5513 22.5517 17 22 17H4.00002C3.72364 17 3.5 17.2237 3.5 17.5C3.5 17.7764 3.72364 18.0001 4.00002 18.0001H22C23.1026 18 24 17.1031 24 16V4C24 3.72367 23.7764 3.50003 23.5 3.50003Z" fill="#646C7B"/>
<path d="M18.5 11H12.5C12.2236 11 12 11.2237 12 11.5C12 11.7764 12.2236 12.0001 12.5 12.0001H18.5C18.7764 12.0001 19 11.7764 19 11.5C19 11.2237 18.7764 11 18.5 11Z" fill="#646C7B"/>
<path d="M18.5 8.00003H12.5C12.2236 8.00003 12 8.22367 12 8.50005C12 8.77642 12.2236 9.00006 12.5 9.00006H18.5C18.7764 9.00006 19 8.77642 19 8.50005C19 8.22367 18.7764 8.00003 18.5 8.00003Z" fill="#646C7B"/>
<path d="M18.5 5H12.5C12.2236 5 12 5.22364 12 5.50002C12 5.77639 12.2236 6.00003 12.5 6.00003H18.5C18.7764 6.00003 19 5.77639 19 5.50002C19 5.22364 18.7764 5 18.5 5Z" fill="#646C7B"/>
<path d="M7.00002 8C8.10256 8 9.00003 7.103 9.00003 5.99999C9.00003 4.89697 8.10256 3.99997 7.00002 3.99997C5.89747 3.99997 5 4.89692 5 5.99999C5 7.10305 5.89752 8 7.00002 8ZM7.00002 5C7.55178 5 8 5.44874 8 5.99999C8 6.55124 7.55173 6.99997 7.00002 6.99997C6.4483 6.99997 6.00003 6.55124 6.00003 5.99999C6.00003 5.44874 6.4483 5 7.00002 5Z" fill="#646C7B"/>
<path d="M9.98733 9.2368C9.28809 8.90084 8.20312 8.49997 7.00003 8.49997C5.79689 8.49997 4.71192 8.90084 4.01273 9.2368C3.3877 9.53759 3 10.1377 3 10.8027V11.0312C3 11.5654 3.44827 12 3.99998 12H9.99998C10.5517 12 11 11.5654 11 11.0312V10.8027C11 10.1377 10.6123 9.53759 9.98733 9.2368ZM9.99998 11L3.99998 11.0313V10.8028C3.99998 10.5254 4.17089 10.2705 4.44628 10.1382C5.05177 9.8472 5.98533 9.5 6.99998 9.5C8.01464 9.5 8.94825 9.84716 9.55369 10.1382C9.82908 10.2705 9.99998 10.5254 9.99998 10.8028V11Z" fill="#646C7B"/>
</svg>