<svg width="24" height="20" viewBox="0 0 24 20" fill="none" xmlns="http://www.w3.org/2000/svg">
<path d="M23.5735 2.04981C23.2625 1.68222 22.827 1.45769 22.3472 1.41761L5.44615 0.00639763C4.96624 -0.0336803 4.49965 0.115522 4.13201 0.426443C3.76587 0.736144 3.54167 1.16941 3.50033 1.64692L3.1603 4.83703H1.80257C0.808637 4.83703 0 5.64567 0 6.6396V17.2193C0 18.2133 0.808637 19.0219 1.80257 19.0219H18.7625C19.7565 19.0219 20.5651 18.2133 20.5651 17.2193V15.5031L21.1669 15.5534C21.2177 15.5576 21.2682 15.5597 21.3182 15.5597C22.2449 15.5597 23.0348 14.8468 23.1133 13.907L23.9936 3.36399C24.0336 2.88414 23.8844 2.41745 23.5735 2.04981ZM1.80257 5.77453H18.7625C19.2395 5.77453 19.6276 6.16261 19.6276 6.6396V7.60363H0.937496V6.6396C0.937496 6.16261 1.32557 5.77453 1.80257 5.77453ZM0.937496 8.54113H19.6276V10.4859H0.937496V8.54113ZM18.7625 18.0844H1.80257C1.32557 18.0844 0.937496 17.6963 0.937496 17.2193V11.4234H19.6276V17.2193C19.6276 17.6963 19.2395 18.0844 18.7625 18.0844ZM23.0594 3.28595L22.179 13.829C22.1393 14.3043 21.7202 14.6589 21.2449 14.6191L20.5651 14.5623V6.6396C20.5651 5.64567 19.7565 4.83703 18.7625 4.83703H4.10314L4.43309 1.74142C4.43347 1.73786 4.43379 1.73434 4.43407 1.73073C4.47378 1.25538 4.89265 0.900816 5.36815 0.940659L22.2692 2.35187C22.4995 2.37109 22.7085 2.47886 22.8577 2.65529C23.0069 2.83173 23.0786 3.05565 23.0594 3.28595Z" fill="#646C7B"/>
<path d="M17.6659 12.8171H13.1545C12.8957 12.8171 12.6858 13.0269 12.6858 13.2858V16.2291C12.6858 16.488 12.8957 16.6978 13.1545 16.6978H17.6659C17.9248 16.6978 18.1346 16.488 18.1346 16.2291V13.2858C18.1346 13.0269 17.9248 12.8171 17.6659 12.8171ZM17.1971 15.7603H13.6233V13.7546H17.1971V15.7603Z" fill="#646C7B"/>
</svg>
