<svg width="24" height="22" viewBox="0 0 24 22" fill="none" xmlns="http://www.w3.org/2000/svg">
<path d="M23.7559 0.244149C23.6026 0.0869664 23.392 -0.0011567 23.1724 1.14677e-05H0.827598C0.608043 -0.0011567 0.397444 0.0869664 0.244149 0.244149C0.0869664 0.397444 -0.0011567 0.608043 1.14677e-05 0.827598V18.2069C-0.0011567 18.4265 0.0869664 18.6371 0.244149 18.7904C0.397444 18.9475 0.608043 19.0357 0.827598 19.0345H22.7586C23.4442 19.0345 24 18.4787 24 17.7931V0.827598C24.0012 0.608043 23.9131 0.397444 23.7559 0.244149Z" fill="#F3D55B"/>
<path d="M24.0001 0.827588V17.7931C24.0001 18.1223 23.8691 18.4379 23.636 18.6703L21.9312 16.9655V2.06897L23.756 0.244141C23.9132 0.397435 24.0013 0.608034 24.0001 0.827588Z" fill="#F0C419"/>
<path d="M2.06898 2.06897V16.9655L0.244149 18.7903C0.0869664 18.637 -0.0011567 18.4264 1.14677e-05 18.2069V0.827588C-0.0011567 0.608034 0.0869664 0.397435 0.244149 0.244141L2.06898 2.06897Z" fill="#F0C419"/>
<path d="M23.6359 18.6703C23.4035 18.9034 23.0878 19.0345 22.7586 19.0344H0.827589C0.608034 19.0356 0.397435 18.9475 0.244141 18.7903L2.06897 16.9655H21.931L23.6359 18.6703Z" fill="#F29C1F"/>
<path d="M2.06885 2.06897H21.9309V16.9655H2.06885V2.06897Z" fill="#ECF0F1"/>
<path d="M21.9309 2.06897C21.9309 2.06897 2.06885 2.06897 2.06885 16.9655V2.06897H21.9309Z" fill="white"/>
<path d="M14.8968 4.96553H9.10373C8.8752 4.96553 8.68994 4.78027 8.68994 4.55174C8.68994 4.3232 8.8752 4.13794 9.10373 4.13794H14.8968C15.1254 4.13794 15.3106 4.3232 15.3106 4.55174C15.3106 4.78027 15.1254 4.96553 14.8968 4.96553Z" fill="#BDC3C7"/>
<path d="M10.7587 14.069H4.96555C4.73702 14.069 4.55176 13.8837 4.55176 13.6552C4.55176 13.4267 4.73702 13.2414 4.96555 13.2414H10.7587C10.9872 13.2414 11.1724 13.4267 11.1724 13.6552C11.1724 13.8837 10.9872 14.069 10.7587 14.069Z" fill="#95A5A5"/>
<path d="M16.1379 7.0345H7.86203C7.6335 7.0345 7.44824 6.84924 7.44824 6.62071C7.44824 6.39217 7.6335 6.20691 7.86203 6.20691H16.1379C16.3664 6.20691 16.5517 6.39217 16.5517 6.62071C16.5517 6.84924 16.3664 7.0345 16.1379 7.0345Z" fill="#BDC3C7"/>
<path d="M14.4829 15.4759L14.4829 20.8469C14.4819 20.9911 14.556 21.1254 14.6785 21.2014C14.801 21.2774 14.9542 21.2842 15.0829 21.2193L16.1588 20.6773C16.2762 20.6193 16.4138 20.6193 16.5312 20.6773L17.6071 21.2193C17.7358 21.2842 17.889 21.2774 18.0115 21.2014C18.134 21.1254 18.2081 20.9911 18.2071 20.8469L18.2071 15.4759H14.4829Z" fill="#FF5364"/>
<path d="M10.7587 12.4138C9.74542 12.4138 8.74932 12.1524 7.86665 11.6549C6.9825 12.1569 5.98227 12.4186 4.96555 12.4138C4.73702 12.4138 4.55176 12.2285 4.55176 12C4.55176 11.7715 4.73702 11.5862 4.96555 11.5862C5.70724 11.5895 6.44043 11.4282 7.11231 11.1141C6.68284 10.7848 6.40815 10.2931 6.353 9.75477C6.353 9.50649 6.46183 8.68967 7.8621 8.68967C9.26238 8.68967 9.3712 9.50484 9.3712 9.75477C9.31634 10.2938 9.04183 10.7863 8.61231 11.1166C9.28442 11.4293 10.0173 11.5897 10.7587 11.5862C10.9872 11.5862 11.1724 11.7715 11.1724 12C11.1724 12.2285 10.9872 12.4138 10.7587 12.4138ZM7.8621 9.51725C7.54762 9.51725 7.18059 9.57932 7.18059 9.75477C7.18059 9.93021 7.36638 10.2836 7.85879 10.6626C8.29907 10.3258 8.54362 9.97366 8.54362 9.75477C8.54362 9.57932 8.17658 9.51725 7.8621 9.51725Z" fill="#95A5A5"/>
<path d="M20.2762 12.6207C20.2762 13.0978 19.3853 13.3937 19.2131 13.8087C19.0348 14.2386 19.4486 15.0766 19.1246 15.4006C18.8006 15.7246 17.9626 15.3108 17.5331 15.4887C17.1181 15.6609 16.8222 16.5518 16.3451 16.5518C15.868 16.5518 15.5721 15.6609 15.1571 15.4887C14.7272 15.3104 13.8892 15.7242 13.5652 15.4002C13.2412 15.0762 13.655 14.2382 13.4771 13.8087C13.305 13.3937 12.4141 13.0978 12.4141 12.6207C12.4141 12.1436 13.305 11.8477 13.4771 11.4327C13.6554 11.0028 13.2417 10.1648 13.5657 9.84084C13.8897 9.51684 14.7276 9.93064 15.1571 9.7527C15.5709 9.58057 15.868 8.68967 16.3451 8.68967C16.8222 8.68967 17.1181 9.58057 17.5331 9.7527C17.963 9.93105 18.801 9.51726 19.125 9.84126C19.449 10.1653 19.0352 11.0032 19.2131 11.4327C19.3853 11.8477 20.2762 12.1436 20.2762 12.6207Z" fill="#FB7B76"/>
<path d="M16.3448 14.069C17.1446 14.069 17.7931 13.4206 17.7931 12.6207C17.7931 11.8208 17.1446 11.1724 16.3448 11.1724C15.5449 11.1724 14.8965 11.8208 14.8965 12.6207C14.8965 13.4206 15.5449 14.069 16.3448 14.069Z" fill="#DF4D60"/>
</svg>
