<svg width="20" height="21" viewBox="0 0 20 21" fill="none" xmlns="http://www.w3.org/2000/svg">
<path d="M18.1581 1.842C16.9703 0.654192 15.391 0 13.7112 0C12.0314 0 10.4521 0.654192 9.26424 1.842C8.2062 2.90008 7.55903 4.30323 7.44198 5.793C7.33444 7.16071 7.67698 8.52628 8.40928 9.6727L0.396645 17.6851C-0.132215 18.214 -0.132215 19.0745 0.396645 19.6034C0.652834 19.8596 0.993513 20.0008 1.35584 20.0008C1.71816 20.0008 2.05875 19.8596 2.31503 19.6034L3.48395 18.4345L4.96625 19.9169C5.22244 20.173 5.56312 20.3142 5.92545 20.3142C6.28777 20.3142 6.62836 20.1731 6.88459 19.9168C7.41345 19.3879 7.41341 18.5274 6.88459 17.9985L6.09977 17.2138L6.97176 16.3418L7.75653 17.1265C8.01272 17.3827 8.3534 17.5239 8.71572 17.5239C9.07805 17.5239 9.41864 17.3828 9.67478 17.1265C9.93097 16.8704 10.0721 16.5297 10.0721 16.1674C10.0721 15.8051 9.93101 15.4644 9.67482 15.2082L8.19239 13.7259L10.3273 11.5911C11.3366 12.2374 12.5 12.5776 13.7116 12.5777C15.3913 12.5776 16.9703 11.9236 18.158 10.7359C19.3458 9.54804 20 7.96876 20 6.28895C20.0001 4.60914 19.3459 3.02985 18.1581 1.842ZM17.6349 10.2127C16.5869 11.2608 15.1939 11.8378 13.7121 11.8378C12.5493 11.8377 11.4374 11.4832 10.4962 10.8125C10.3491 10.7076 10.1478 10.7243 10.0199 10.8521L7.4077 13.4643C7.33834 13.5337 7.29939 13.6278 7.29939 13.7259C7.29939 13.8241 7.33838 13.9181 7.4077 13.9876L9.15158 15.7315C9.26804 15.8479 9.3322 16.0027 9.3322 16.1674C9.3322 16.3321 9.26804 16.487 9.15158 16.6034C9.03517 16.7199 8.88027 16.784 8.71563 16.784C8.55095 16.784 8.39605 16.7199 8.2796 16.6034L7.2332 15.557C7.08876 15.4126 6.85453 15.4126 6.71004 15.557L5.31495 16.9521C5.17046 17.0967 5.17046 17.3308 5.31495 17.4753L6.36135 18.5217C6.60178 18.7621 6.60178 19.1533 6.36135 19.3937C6.24494 19.5101 6.09004 19.5743 5.9254 19.5743C5.76072 19.5743 5.60582 19.5101 5.48941 19.3937L3.74553 17.6497C3.67327 17.5775 3.57863 17.5414 3.48391 17.5414C3.38927 17.5414 3.29455 17.5775 3.22228 17.6497L1.79183 19.0803C1.67537 19.1967 1.52047 19.2609 1.35579 19.2609C1.19111 19.2609 1.03621 19.1967 0.9198 19.0803C0.679368 18.8399 0.679368 18.4487 0.9198 18.2084L9.14801 9.98019C9.27574 9.85237 9.29254 9.65105 9.18767 9.5039C7.61106 7.29152 7.86326 4.28924 9.78735 2.36511C10.8355 1.31703 12.2289 0.73986 13.7112 0.73986C15.1934 0.73986 16.5869 1.31708 17.6349 2.3652C18.6831 3.41327 19.2603 4.80674 19.2603 6.28895C19.2603 7.7712 18.683 9.16467 17.6349 10.2127Z" fill="#646C7B"/>
<path d="M17.6684 6.08129C17.4643 6.07251 17.292 6.23175 17.2837 6.43583C17.247 7.33525 16.8762 8.18115 16.2398 8.81755C15.5644 9.49307 14.6665 9.86504 13.7112 9.86504C12.756 9.86504 11.858 9.49307 11.1825 8.8176C9.78822 7.42327 9.78822 5.15461 11.1825 3.76033C11.858 3.08481 12.756 2.71284 13.7112 2.71284C14.6665 2.71284 15.5644 3.08481 16.2399 3.76029C16.6208 4.14117 16.9043 4.59002 17.0826 5.09443C17.1506 5.28705 17.362 5.38802 17.5546 5.31997C17.7472 5.25187 17.8483 5.04055 17.7802 4.84793C17.5648 4.23857 17.2226 3.69667 16.7631 3.23713C15.9478 2.42197 14.8641 1.97303 13.7112 1.97303C12.5584 1.97303 11.4746 2.42197 10.6593 3.23713C8.97655 4.91993 8.97655 7.65804 10.6593 9.34084C11.4746 10.156 12.5584 10.6049 13.7112 10.6049C14.8641 10.6049 15.9479 10.156 16.7631 9.34084C17.5312 8.57268 17.9787 7.55177 18.023 6.46607C18.0313 6.26186 17.8726 6.08962 17.6684 6.08129Z" fill="#646C7B"/>
</svg>
