<svg width="76" height="84" viewBox="0 0 76 84" fill="none" xmlns="http://www.w3.org/2000/svg">
<path d="M6.34321 16.7016L32.1807 1.81692C35.9628 -0.354933 40.6247 -0.298765 44.3506 1.94798L69.4766 17.1884C73.0527 19.3602 75.2246 23.2359 75.2246 27.4111V57.5174C75.2246 61.8049 72.9217 65.7742 69.1958 67.8898L43.8076 82.3626C40.1005 84.4783 35.5509 84.4596 31.8625 82.3064L6.2496 67.4031C2.56119 65.2499 0.314453 61.3181 0.314453 57.0493L0.351899 27.0366C0.351899 22.7678 2.63609 18.836 6.34321 16.7016Z" fill="url(#paint0_linear_3288_202)"/>
<path d="M37.7398 40.9691C37.4746 40.9691 37.2094 40.9079 36.9646 40.7651L21.1342 31.5851C20.665 31.3199 20.3794 30.8099 20.3794 30.2591C20.3794 29.7083 20.665 29.2187 21.1342 28.9331L36.9646 19.7939C37.4338 19.5287 38.0254 19.5287 38.4946 19.7939L54.3453 28.9331C54.8145 29.1983 55.1001 29.7083 55.1001 30.2591C55.1001 30.8099 54.8145 31.2995 54.3453 31.5851L38.4946 40.7651C38.2702 40.9079 38.005 40.9691 37.7398 40.9691Z" fill="white"/>
<path d="M36.3935 56.3915V44.7635C36.3935 44.4983 36.3323 44.2331 36.2099 44.0087C36.0875 43.7843 35.8835 43.5803 35.6591 43.4375L34.9043 43.0091L19.8287 34.2576C19.3595 33.9924 18.7679 33.9924 18.2987 34.2576C17.8295 34.5228 17.5439 35.0328 17.5439 35.5836L17.5643 53.9027C17.5643 54.4535 17.8499 54.9431 18.3191 55.2287L34.1087 64.3475C34.2923 64.4495 34.4963 64.5107 34.7003 64.5311C34.7615 64.5311 34.8227 64.5311 34.8839 64.5311C34.9451 64.5311 35.0063 64.5311 35.0675 64.5311C35.2511 64.4903 35.4347 64.4291 35.5979 64.3475C36.0671 64.0823 36.3527 63.5723 36.3527 63.0215V60.4919V56.3915H36.3935Z" fill="white"/>
<path d="M40.738 61.3487L40.6564 61.3079L40.738 61.3487ZM39.1264 60.3899V63.0419C39.1264 63.5723 39.412 64.0823 39.8812 64.3679C40.0648 64.4699 40.2484 64.5311 40.4524 64.5515C40.5136 64.5515 40.5748 64.5515 40.636 64.5515C40.6972 64.5515 40.7584 64.5515 40.8196 64.5515C41.0236 64.5311 41.2072 64.4699 41.3908 64.3679L57.2007 55.2492C57.6699 54.984 57.9555 54.474 57.9555 53.9232L57.9759 35.604C57.9759 35.0532 57.6903 34.5636 57.2211 34.278C56.7519 34.0128 56.1603 34.0128 55.6911 34.278L40.6156 43.0296L39.8608 43.458C39.6364 43.6008 39.4324 43.7844 39.31 44.0292C39.1876 44.2536 39.106 44.4984 39.106 44.784" fill="white"/>
<defs>
<linearGradient id="paint0_linear_3288_202" x1="0.314453" y1="42.0845" x2="75.2058" y2="42.0845" gradientUnits="userSpaceOnUse">
<stop stop-color="#19C695"/>
<stop offset="1" stop-color="#07B8D7"/>
</linearGradient>
</defs>
</svg>
