<svg width="18" height="24" viewBox="0 0 18 24" fill="none" xmlns="http://www.w3.org/2000/svg">
<path d="M7.81839 16.6084L7.50297 19.4448C7.48736 19.5859 7.53274 19.7275 7.62747 19.8335C7.7222 19.9394 7.85796 20 8.00003 20H10.0001C10.1421 20 10.2779 19.9394 10.3726 19.8335C10.4674 19.7276 10.5128 19.586 10.4971 19.4448L10.1817 16.6084C10.6939 16.2358 11 15.6465 11 15C11 13.897 10.1031 13 9.00002 13C7.89696 13 7 13.897 7 15C7 15.6465 7.30619 16.2358 7.81839 16.6084ZM9.00002 14C9.55127 14 10 14.4487 10 15C10 15.3833 9.78223 15.7265 9.43165 15.8965C9.24072 15.9892 9.12893 16.1914 9.15236 16.4018L9.44144 19H8.55864L8.84772 16.4018C8.87116 16.1914 8.75936 15.9892 8.56844 15.8965C8.21786 15.7265 8.00008 15.3833 8.00008 15C8.00003 14.4487 8.44877 14 9.00002 14Z" fill="#646C7B"/>
<path d="M17.5 9H16V6.99998C16 3.14016 12.8599 0 9 0C5.14012 0 2.00002 3.14016 2.00002 6.99998V9H0.500016C0.223641 9 0 9.22364 0 9.50002V22C0 23.103 0.896953 24 2.00002 24H16C17.103 24 18 23.103 18 22V9.50002C18 9.22364 17.7764 9 17.5 9ZM3 6.99998C3 3.69141 5.69142 0.999984 9 0.999984C12.3086 0.999984 15 3.69141 15 6.99998V9H14V6.99998C14 4.24312 11.7569 1.99997 9 1.99997C6.24314 1.99997 3.99998 4.24317 3.99998 6.99998V9H3V6.99998ZM13 6.99998V9H5.00002V6.99998C5.00002 4.79442 6.79444 3 9 3C11.2056 3 13 4.79442 13 6.99998ZM17 22C17 22.5512 16.5513 23 16 23H2.00002C1.44877 23 1.00003 22.5512 1.00003 22V9.99998H17V22Z" fill="#646C7B"/>
</svg>