<svg width="78" height="88" viewBox="0 0 78 88" fill="none" xmlns="http://www.w3.org/2000/svg">
<path fill-rule="evenodd" clip-rule="evenodd" d="M71.7017 70.2159L45.4842 85.5221C41.6144 87.7816 36.8468 87.7816 32.977 85.5221L6.75947 70.2159C2.88966 67.9564 0.505859 63.7811 0.505859 59.2629V28.6504C0.505859 24.1315 2.88966 19.9562 6.75947 17.6967L32.977 2.39121C36.8468 0.131764 41.6144 0.131764 45.4842 2.39121L71.7017 17.6967C75.5715 19.9562 77.9553 24.1315 77.9553 28.6504V59.2629C77.9553 63.7811 75.5715 67.9564 71.7017 70.2159Z" fill="white"/>
<path fill-rule="evenodd" clip-rule="evenodd" d="M71.7017 70.2159L45.4842 85.5221C41.6144 87.7816 36.8468 87.7816 32.977 85.5221L6.75947 70.2159C2.88966 67.9565 0.505859 63.7811 0.505859 59.2629V28.6504C0.505859 24.1315 2.88966 19.9562 6.75947 17.6967L32.977 2.39121C36.8468 0.131764 41.6144 0.131764 45.4842 2.39121L71.7017 17.6967C75.5715 19.9562 77.9553 24.1315 77.9553 28.6504V59.2629C77.9553 63.7811 75.5715 67.9565 71.7017 70.2159ZM29.7678 29.6575C21.2711 34.9375 18.6072 46.2224 23.828 54.8128C29.0488 63.4032 40.2094 66.0977 48.7053 60.8176C53.6044 57.7745 56.7997 52.4844 57.2544 46.6662C57.3988 45.7358 57.2336 44.8853 56.7997 44.1714C56.3135 43.3718 55.5493 42.8118 54.6458 42.5939C53.743 42.3797 52.8093 42.5271 52.0185 43.0181C51.0259 43.6354 50.4075 44.7096 50.3637 45.8927C50.1396 49.5916 48.1631 52.9281 45.0754 54.8462C42.5386 56.4229 39.5422 56.9045 36.647 56.2065C33.7482 55.5064 31.2933 53.7081 29.7347 51.1429C28.1755 48.577 27.6979 45.5499 28.3895 42.6201C29.0819 39.6896 30.8602 37.2079 33.3977 35.6311C36.4847 33.713 40.3186 33.4371 43.6533 34.8925L43.835 34.968C44.8764 35.3936 46.0148 35.3021 46.96 34.7131C48.5875 33.7014 49.0975 31.5393 48.0963 29.8921C47.7178 29.2682 47.164 28.7874 46.4968 28.502L45.7477 28.1817C43.644 27.3618 41.4318 26.9565 39.2297 26.9565C35.9316 26.9565 32.6508 27.8651 29.7678 29.6575ZM55.454 27.5032C53.4839 28.7277 52.3836 30.839 52.3347 33.0135C52.2334 35.2656 51.0728 37.4248 49.0337 38.6929C47.1513 39.8622 44.9348 40.0155 43.01 39.3052C40.9946 38.1344 38.4255 38.085 36.3053 39.4018C33.2198 41.3199 32.2545 45.4044 34.1513 48.526C36.0482 51.6468 40.0882 52.6207 43.1737 50.7033C45.161 49.4687 46.2635 47.3291 46.2908 45.1292C46.4366 42.9336 47.5908 40.8412 49.5853 39.6015C51.6251 38.3334 54.0599 38.2601 56.0925 39.1853L56.1104 39.1606C58.0425 40.0692 60.3703 40.0162 62.3217 38.804C65.4079 36.8867 66.3732 32.8014 64.4771 29.6813C62.5795 26.5598 58.5395 25.5858 55.454 27.5032Z" fill="#26A69A"/>
</svg>
