<svg width="24" height="24" viewBox="0 0 24 24" fill="none" xmlns="http://www.w3.org/2000/svg">
<g clip-path="url(#clip0_3367_27)">
<path d="M11.0199 22H0.499911C0.345911 22 0.200911 21.929 0.105911 21.808C0.0109108 21.686 -0.0230892 21.529 0.0139108 21.379L0.553911 19.209C0.825911 18.13 1.61491 17.28 2.66291 16.935L6.68091 15.596C7.27691 15.347 7.64891 14.449 7.68691 13.125C7.22691 12.707 6.23991 11.687 6.23991 10.641C6.23991 10.274 6.11691 10.199 6.11591 10.198C5.96391 10.157 5.88391 10.063 5.82491 9.916C5.77491 9.79 5.33991 8.674 5.33991 7.92C5.33991 7.88 5.34491 7.84 5.35491 7.801C5.41791 7.542 5.56991 7.282 5.79891 7.124C5.80491 7.004 5.81191 6.871 5.81991 6.723C5.84491 6.229 5.87991 5.57 5.87991 4.75C5.87991 2.874 8.17391 0 10.9999 0C13.5569 0 14.7949 1.362 14.9999 2.242C15.6249 2.588 16.1699 3.159 16.1699 4.75V7.127C16.4179 7.298 16.5709 7.572 16.6349 7.761C16.6519 7.812 16.6599 7.866 16.6599 7.92C16.6599 8.196 16.4359 8.44 16.1599 8.44C15.9089 8.44 15.7019 8.272 15.6659 8.035C15.6469 8 15.6229 7.965 15.6069 7.953C15.3319 7.953 15.1689 7.746 15.1689 7.47V4.75C15.1689 3.445 14.7499 3.234 14.4999 3.109C14.3489 3.032 14.0299 2.872 14.0299 2.49C14.0119 2.189 13.1699 1 10.9999 1C8.61991 1 6.87991 3.466 6.87991 4.75C6.87991 5.592 6.84491 6.268 6.81691 6.775C6.80291 7.064 6.78991 7.297 6.78991 7.47C6.78991 7.729 6.59291 7.942 6.34091 7.968C6.35691 8.378 6.56191 9.021 6.69291 9.38C6.96091 9.57 7.23991 9.958 7.23991 10.64C7.23991 11.204 7.89791 12.007 8.50991 12.515C8.62391 12.61 8.68991 12.751 8.68991 12.9C8.68991 14.798 8.10091 16.088 7.03091 16.532L2.97791 17.885C2.25391 18.124 1.71091 18.71 1.52391 19.453L1.13991 21H11.0199C11.2959 21 11.5199 21.224 11.5199 21.5C11.5199 21.776 11.2959 22 11.0199 22Z" fill="#646C7B"/>
<path d="M18 24C17.934 24 17.868 23.987 17.806 23.96C17.568 23.861 12 21.454 12 16.536V12.357C12 12.143 12.137 11.952 12.34 11.883L17.84 10.026C17.944 9.99101 18.057 9.99101 18.16 10.026L23.66 11.883C23.863 11.951 24 12.142 24 12.357V16.536C24 21.454 18.432 23.861 18.194 23.961C18.132 23.987 18.066 24 18 24ZM13 12.716V16.536C13 20.321 17.055 22.494 18 22.95C18.944 22.493 23 20.312 23 16.536V12.716L18 11.028L13 12.716Z" fill="#646C7B"/>
<path d="M17.4999 19C17.4909 19 17.4809 19 17.4729 18.999C17.3299 18.991 17.1989 18.923 17.1099 18.812L15.1099 16.312C14.9379 16.096 14.9719 15.782 15.1879 15.609C15.4049 15.437 15.7189 15.473 15.8909 15.687L17.5409 17.751L20.6459 14.646C20.8409 14.451 21.1579 14.451 21.3529 14.646C21.5479 14.841 21.5479 15.158 21.3529 15.353L17.8529 18.853C17.7599 18.948 17.6319 19 17.4999 19Z" fill="#646C7B"/>
</g>
<defs>
<clipPath id="clip0_3367_27">
<rect width="24" height="24" fill="white"/>
</clipPath>
</defs>
</svg>
