<svg width="24" height="21" viewBox="0 0 24 21" fill="none" xmlns="http://www.w3.org/2000/svg">
<path d="M0.0009375 13.7648C0.0909375 13.3073 0.156094 12.8428 0.276094 12.3932C0.707812 10.7709 1.59469 9.4387 2.92313 8.41635C3.39047 8.05682 3.90984 7.76526 4.40438 7.44323C4.22156 7.18729 3.99562 6.91213 3.81422 6.61026C2.20078 3.92151 3.92156 0.390885 7.035 0.0360408C8.92453 -0.179584 10.3739 0.577447 11.3958 2.16932C11.5463 2.4037 11.505 2.63151 11.3025 2.7651C11.1019 2.89729 10.8778 2.84948 10.7236 2.60573C10.4016 2.0962 10.012 1.65745 9.49453 1.34198C7.28719 -0.00286549 4.52344 1.27823 4.07859 3.72557C3.78891 5.31885 4.46812 6.74385 5.88562 7.5351C6.84047 8.06854 7.85531 8.12573 8.88656 7.74088C8.98125 7.70573 9.07266 7.65932 9.16922 7.62979C9.40172 7.55901 9.61922 7.65463 9.69281 7.85292C9.77109 8.06292 9.69188 8.28838 9.46031 8.37182C9.06656 8.51385 8.66766 8.66526 8.2575 8.73463C7.21078 8.91182 6.22875 8.69807 5.31469 8.15385C5.23359 8.10557 5.08828 8.09948 4.99969 8.13745C2.88844 9.04635 1.53141 10.6139 0.999844 12.8512C0.855469 13.4592 0.840937 14.1014 0.805313 14.7304C0.774844 15.2737 0.79875 15.8198 0.79875 16.3917C0.910781 16.3917 1.00172 16.3917 1.09266 16.3917C2.86594 16.3912 4.63922 16.3874 6.41203 16.394C6.58453 16.3945 6.64922 16.3448 6.69375 16.1774C7.35094 13.6978 8.83313 11.8631 11.0662 10.6242C11.317 10.4849 11.5833 10.3739 11.8477 10.2468C9.60891 7.98604 10.2394 4.81823 11.9086 3.29713C13.7386 1.62932 16.4958 1.55057 18.2981 3.12323C19.3594 4.04901 19.9434 5.21479 19.9969 6.61823C20.0503 8.0212 19.537 9.22213 18.5686 10.2117C19.0767 10.4957 19.5942 10.7399 20.0639 11.0549C22.1297 12.4401 23.3911 14.3667 23.8566 16.8112C23.91 17.092 23.9527 17.3746 24 17.6564C24 18.6093 24 19.5628 24 20.5157C23.8753 20.7412 23.6794 20.7989 23.4305 20.7984C20.4778 20.7937 17.5256 20.7965 14.573 20.797C12.0267 20.797 9.48047 20.796 6.93422 20.7946C6.55922 20.7946 6.39188 20.6568 6.39047 20.3099C6.38766 19.5918 6.39656 18.8732 6.41063 18.1551C6.41672 17.8396 6.44859 17.5242 6.46969 17.1899C6.35203 17.1899 6.25969 17.1899 6.16734 17.1899C4.31625 17.1904 2.46516 17.1876 0.614063 17.1956C0.366094 17.1965 0.157969 17.1543 0 16.9537C0.0009375 15.8901 0.0009375 14.8274 0.0009375 13.7648ZM23.1778 19.979C23.2561 19.4371 23.1994 17.6146 23.0625 16.949C22.47 14.0737 20.8144 12.074 18.1031 10.9424C17.8777 10.8482 17.7075 10.8646 17.4975 10.9856C16.6416 11.4787 15.7158 11.6653 14.7305 11.5668C14.0363 11.4974 13.3941 11.2823 12.7908 10.9345C12.7022 10.8834 12.5592 10.8524 12.4697 10.8867C10.2141 11.7379 8.64047 13.2928 7.74047 15.5249C7.305 16.6054 7.17984 17.7403 7.21031 18.8976C7.21969 19.2539 7.21172 19.6106 7.21172 19.9785C12.5489 19.979 17.8561 19.979 23.1778 19.979ZM19.1897 6.79542C19.1986 4.60682 17.4206 2.81198 15.2297 2.79698C13.0219 2.78198 11.2083 4.57917 11.205 6.78463C11.2022 8.98307 12.99 10.7728 15.195 10.7779C17.4014 10.7835 19.1808 9.00885 19.1897 6.79542Z" fill="#646C7B"/>
</svg>
